<?xml version="1.0" encoding="utf-8"?>
<!-- Generator: Adobe Illustrator 25.4.1, SVG Export Plug-In . SVG Version: 6.00 Build 0)  -->
<svg version="1.1" id="Layer_1" xmlns="http://www.w3.org/2000/svg" xmlns:xlink="http://www.w3.org/1999/xlink" x="0px" y="0px"
	 viewBox="0 0 928.8 285.1" style="enable-background:new 0 0 928.8 285.1;" xml:space="preserve">
<style type="text/css">
	.st0{fill:#583D8A;}
	.st1{fill:#583D8B;}
</style>
<g>
	<path class="st0" d="M362.7,136.1h-96.3c0.8,9.8,4.5,17.6,11.2,23.5s14.9,8.9,24.7,8.9c14,0,23.9-5.7,29.7-17.1h28.1
		c-3.8,11.2-10.7,20.5-20.7,27.6c-10,7.2-22.4,10.8-37.2,10.8c-12,0-22.8-2.6-32.4-7.9c-9.5-5.3-17-12.7-22.4-22.2
		s-8.1-20.6-8.1-33.2s2.6-23.6,7.9-33.2s12.7-16.9,22.2-22.1s20.5-7.8,32.8-7.8c11.9,0,22.5,2.5,31.8,7.5s16.5,12.1,21.7,21.2
		s7.8,19.6,7.8,31.4C363.6,128.3,363.3,132.4,362.7,136.1z M336.4,115.7c-0.2-9.3-3.6-16.8-10.3-22.4c-6.7-5.6-15-8.4-24.9-8.4
		c-9,0-16.7,2.8-23.1,8.3c-6.4,5.6-10.2,13.1-11.4,22.5H336.4z"/>
	<path class="st0" d="M410.4,23.5v164.3h-26.1V23.5H410.4z"/>
	<path class="st0" d="M554.7,136.1h-96.3c0.8,9.8,4.5,17.6,11.2,23.5s14.9,8.9,24.7,8.9c14,0,23.9-5.7,29.7-17.1h28.1
		c-3.8,11.2-10.7,20.5-20.7,27.6c-10,7.2-22.4,10.8-37.2,10.8c-12,0-22.8-2.6-32.4-7.9c-9.5-5.3-17-12.7-22.4-22.2
		s-8.1-20.6-8.1-33.2s2.6-23.6,7.9-33.2s12.7-16.9,22.2-22.1s20.5-7.8,32.8-7.8c11.9,0,22.5,2.5,31.8,7.5s16.5,12.1,21.7,21.2
		s7.8,19.6,7.8,31.4C555.6,128.3,555.3,132.4,554.7,136.1z M528.4,115.7c-0.2-9.3-3.6-16.8-10.3-22.4s-15-8.4-24.9-8.4
		c-9,0-16.7,2.8-23.1,8.3c-6.4,5.6-10.2,13.1-11.4,22.5H528.4z"/>
	<path class="st0" d="M621.1,165.2l35.7-99.7h27.7l-48,122.3h-31.1L557.5,65.5h27.9L621.1,165.2z"/>
	<path class="st0" d="M693.9,93.5c5.3-9.5,12.4-16.8,21.5-22.1c9.1-5.3,19.1-7.9,30.1-7.9c9.9,0,18.6,1.9,26,5.7
		c7.4,3.8,13.3,8.5,17.7,14.1V65.5h26.3v122.3h-26.3v-18.2c-4.4,5.8-10.4,10.6-18.1,14.4c-7.6,3.8-16.3,5.8-26.1,5.8
		c-10.8,0-20.7-2.7-29.7-8.1c-9-5.4-16.1-12.9-21.4-22.6c-5.3-9.7-7.9-20.7-7.9-33C686,113.8,688.7,102.9,693.9,93.5z M783.8,104.6
		c-3.6-6.2-8.3-11-14.1-14.2c-5.8-3.3-12-4.9-18.8-4.9c-6.7,0-13,1.6-18.8,4.8c-5.8,3.2-10.5,7.8-14.1,14
		c-3.6,6.1-5.4,13.4-5.4,21.9s1.8,15.8,5.4,22.2c3.6,6.4,8.3,11.2,14.2,14.5s12.1,5,18.6,5c6.7,0,13-1.6,18.8-4.9
		c5.8-3.3,10.5-8,14.1-14.3s5.4-13.7,5.4-22.1S787.4,110.8,783.8,104.6z"/>
	<path class="st0" d="M885.1,68.7c6.3-3.5,13.8-5.2,22.5-5.2v26.2H901c-10.2,0-18,2.5-23.2,7.5c-5.3,5-7.9,13.8-7.9,26.2v64.4h-26.1
		V65.5h26.1v17.8C873.7,77,878.8,72.2,885.1,68.7z"/>
</g>
<path class="st0" d="M150.2,45.4c-29.5,0-46.3,22.3-49.4,46.6c-14.1,4-24.5,16.9-24.5,32.3c0,18.5,15.1,33.6,33.6,33.6
	s33.6-15.1,33.6-33.6c0-14.9-9.8-27.6-23.3-32c3-19,16.6-27.7,30.1-27.7c8.4,0,16.5,3.3,22.3,9.1c6.9,6.8,10.5,16.7,10.5,28.6
	c0,34.6-36.9,67.9-61.9,79.6c-7.8,3.6-16.6,3.5-24.2-0.3c-25-12.5-60.3-45.3-60.3-79.3c0-15.6,6.4-27.7,18-34.1
	c10.6-5.9,23.8-5.8,33.6,0.3c4.5,2.8,10.4,1.5,13.3-3.1c2.8-4.5,1.4-10.4-3.1-13.3C82.9,42.4,62.1,42,45.4,51.3
	c-17.7,9.8-27.9,28.4-27.9,50.9c0,44.5,43.5,82.8,70.9,96.5c6.6,3.3,13.8,5,21,5c6.8,0,13.6-1.5,20-4.5c30.3-14.1,73-53.6,73-97
	C202.2,64.9,176.1,45.4,150.2,45.4z M109.8,138.6c-7.9,0-14.3-6.4-14.3-14.3s6.4-14.3,14.3-14.3s14.3,6.4,14.3,14.3
	C124.2,132.1,117.7,138.6,109.8,138.6z"/>
<g>
	<path class="st1" d="M247.6,255.9c-1.8-0.7-3.1-1.8-4.1-3.2c-1-1.4-1.5-3-1.5-4.8h5.7c0.1,1.4,0.7,2.5,1.7,3.4
		c1,0.9,2.4,1.3,4.2,1.3c1.8,0,3.3-0.4,4.3-1.3c1-0.9,1.5-2,1.5-3.3c0-1.1-0.3-1.9-1-2.6c-0.6-0.7-1.4-1.2-2.4-1.5
		c-1-0.4-2.3-0.8-4-1.2c-2.1-0.5-3.9-1.1-5.2-1.7c-1.3-0.6-2.5-1.4-3.4-2.6c-0.9-1.2-1.4-2.8-1.4-4.7c0-1.8,0.5-3.4,1.4-4.8
		c0.9-1.4,2.3-2.4,3.9-3.1c1.7-0.7,3.6-1.1,5.9-1.1c3.2,0,5.7,0.8,7.8,2.3c2,1.5,3.1,3.6,3.4,6.3h-5.9c-0.1-1.2-0.7-2.1-1.7-3
		c-1-0.8-2.4-1.2-4.1-1.2c-1.5,0-2.8,0.4-3.8,1.1c-1,0.8-1.5,1.9-1.5,3.3c0,1,0.3,1.8,0.9,2.4c0.6,0.6,1.4,1.1,2.3,1.5
		c0.9,0.4,2.2,0.8,3.8,1.2c2.2,0.6,3.9,1.2,5.3,1.7c1.4,0.6,2.5,1.5,3.5,2.7c1,1.2,1.4,2.8,1.4,4.8c0,1.6-0.4,3.1-1.3,4.6
		c-0.9,1.4-2.2,2.6-3.9,3.4c-1.7,0.9-3.7,1.3-6,1.3C251.4,257,249.4,256.7,247.6,255.9z"/>
	<path class="st1" d="M270,237.4c1.1-1.9,2.5-3.5,4.4-4.5c1.9-1.1,3.9-1.6,6.2-1.6c2,0,3.8,0.4,5.3,1.2c1.5,0.8,2.7,1.7,3.6,2.9
		v-3.6h5.4v25.1h-5.4V253c-0.9,1.2-2.1,2.2-3.7,3c-1.6,0.8-3.3,1.2-5.3,1.2c-2.2,0-4.3-0.6-6.1-1.7c-1.8-1.1-3.3-2.7-4.4-4.6
		c-1.1-2-1.6-4.2-1.6-6.8C268.4,241.5,268.9,239.3,270,237.4z M288.5,239.6c-0.7-1.3-1.7-2.2-2.9-2.9c-1.2-0.7-2.5-1-3.8-1
		c-1.4,0-2.7,0.3-3.8,1c-1.2,0.7-2.2,1.6-2.9,2.9c-0.7,1.3-1.1,2.8-1.1,4.5s0.4,3.2,1.1,4.6c0.7,1.3,1.7,2.3,2.9,3
		c1.2,0.7,2.5,1,3.8,1c1.4,0,2.7-0.3,3.8-1c1.2-0.7,2.1-1.6,2.9-2.9c0.7-1.3,1.1-2.8,1.1-4.5S289.2,240.9,288.5,239.6z"/>
	<path class="st1" d="M306.5,223v33.7h-5.3V223H306.5z"/>
	<path class="st1" d="M336.1,231.6v25.1h-5.3v-3c-0.8,1-1.9,1.8-3.3,2.4s-2.8,0.9-4.3,0.9c-2,0-3.9-0.4-5.5-1.2
		c-1.6-0.8-2.9-2-3.8-3.6c-0.9-1.6-1.4-3.6-1.4-5.8v-14.8h5.3v14c0,2.2,0.6,4,1.7,5.2c1.2,1.2,2.7,1.8,4.7,1.8c2,0,3.6-0.6,4.8-1.8
		c1.2-1.2,1.8-2.9,1.8-5.2v-14H336.1z"/>
	<path class="st1" d="M342.3,237.4c1.1-1.9,2.5-3.5,4.4-4.5c1.9-1.1,3.9-1.6,6.2-1.6c1.7,0,3.4,0.4,5,1.1c1.6,0.7,2.9,1.7,3.9,2.8
		V223h5.4v33.7h-5.4v-3.8c-0.9,1.2-2.1,2.2-3.6,3s-3.3,1.2-5.3,1.2c-2.3,0-4.3-0.6-6.2-1.7c-1.9-1.1-3.3-2.7-4.4-4.6
		c-1.1-2-1.6-4.2-1.6-6.8C340.7,241.5,341.2,239.3,342.3,237.4z M360.7,239.6c-0.7-1.3-1.7-2.2-2.9-2.9c-1.2-0.7-2.5-1-3.8-1
		c-1.4,0-2.7,0.3-3.8,1c-1.2,0.7-2.2,1.6-2.9,2.9c-0.7,1.3-1.1,2.8-1.1,4.5s0.4,3.2,1.1,4.6c0.7,1.3,1.7,2.3,2.9,3
		c1.2,0.7,2.5,1,3.8,1c1.4,0,2.7-0.3,3.8-1c1.2-0.7,2.1-1.6,2.9-2.9c0.7-1.3,1.1-2.8,1.1-4.5S361.5,240.9,360.7,239.6z"/>
	<path class="st1" d="M386.3,237.4c1.1-1.9,2.5-3.5,4.4-4.5c1.9-1.1,3.9-1.6,6.2-1.6c2,0,3.8,0.4,5.3,1.2c1.5,0.8,2.7,1.7,3.6,2.9
		v-3.6h5.4v25.1h-5.4V253c-0.9,1.2-2.1,2.2-3.7,3c-1.6,0.8-3.3,1.2-5.3,1.2c-2.2,0-4.3-0.6-6.1-1.7c-1.8-1.1-3.3-2.7-4.4-4.6
		c-1.1-2-1.6-4.2-1.6-6.8C384.7,241.5,385.2,239.3,386.3,237.4z M404.7,239.6c-0.7-1.3-1.7-2.2-2.9-2.9c-1.2-0.7-2.5-1-3.8-1
		c-1.4,0-2.7,0.3-3.8,1c-1.2,0.7-2.2,1.6-2.9,2.9c-0.7,1.3-1.1,2.8-1.1,4.5s0.4,3.2,1.1,4.6c0.7,1.3,1.7,2.3,2.9,3
		c1.2,0.7,2.5,1,3.8,1c1.4,0,2.7-0.3,3.8-1c1.2-0.7,2.1-1.6,2.9-2.9c0.7-1.3,1.1-2.8,1.1-4.5S405.5,240.9,404.7,239.6z"/>
	<path class="st1" d="M422.7,223v33.7h-5.3V223H422.7z"/>
	<path class="st1" d="M441.8,237.4c1.1-1.9,2.5-3.5,4.4-4.5c1.9-1.1,3.9-1.6,6.2-1.6c2,0,3.8,0.4,5.3,1.2c1.5,0.8,2.7,1.7,3.6,2.9
		v-3.6h5.4v25.1h-5.4V253c-0.9,1.2-2.1,2.2-3.7,3c-1.6,0.8-3.3,1.2-5.3,1.2c-2.2,0-4.3-0.6-6.1-1.7c-1.8-1.1-3.3-2.7-4.4-4.6
		c-1.1-2-1.6-4.2-1.6-6.8C440.2,241.5,440.7,239.3,441.8,237.4z M460.2,239.6c-0.7-1.3-1.7-2.2-2.9-2.9c-1.2-0.7-2.5-1-3.8-1
		c-1.4,0-2.7,0.3-3.8,1c-1.2,0.7-2.2,1.6-2.9,2.9c-0.7,1.3-1.1,2.8-1.1,4.5s0.4,3.2,1.1,4.6c0.7,1.3,1.7,2.3,2.9,3
		c1.2,0.7,2.5,1,3.8,1c1.4,0,2.7-0.3,3.8-1c1.2-0.7,2.1-1.6,2.9-2.9c0.7-1.3,1.1-2.8,1.1-4.5S461,240.9,460.2,239.6z"/>
	<path class="st1" d="M478.2,223v33.7h-5.3V223H478.2z"/>
	<path class="st1" d="M484.5,237.3c1.1-2,2.6-3.5,4.5-4.5c1.9-1.1,4.1-1.6,6.6-1.6c3.1,0,5.7,0.7,7.8,2.2c2,1.4,3.4,3.5,4.2,6.2
		h-5.8c-0.5-1.2-1.2-2.2-2.3-2.9c-1-0.7-2.3-1-3.9-1c-2.2,0-3.9,0.8-5.2,2.3c-1.3,1.5-1.9,3.6-1.9,6.3s0.6,4.8,1.9,6.3
		c1.3,1.5,3,2.3,5.2,2.3c3.1,0,5.1-1.3,6.1-4h5.8c-0.8,2.5-2.2,4.6-4.2,6.1c-2.1,1.5-4.6,2.3-7.7,2.3c-2.5,0-4.7-0.5-6.6-1.6
		c-1.9-1.1-3.4-2.6-4.5-4.6s-1.6-4.2-1.6-6.8S483.4,239.3,484.5,237.3z"/>
	<path class="st1" d="M512,237.4c1.1-1.9,2.5-3.5,4.4-4.5c1.9-1.1,3.9-1.6,6.2-1.6c2,0,3.8,0.4,5.3,1.2c1.5,0.8,2.7,1.7,3.6,2.9
		v-3.6h5.4v25.1h-5.4V253c-0.9,1.2-2.1,2.2-3.7,3c-1.6,0.8-3.3,1.2-5.3,1.2c-2.2,0-4.3-0.6-6.1-1.7c-1.8-1.1-3.3-2.7-4.4-4.6
		c-1.1-2-1.6-4.2-1.6-6.8C510.4,241.5,510.9,239.3,512,237.4z M530.4,239.6c-0.7-1.3-1.7-2.2-2.9-2.9s-2.5-1-3.8-1
		c-1.4,0-2.7,0.3-3.8,1c-1.2,0.7-2.2,1.6-2.9,2.9c-0.7,1.3-1.1,2.8-1.1,4.5s0.4,3.2,1.1,4.6s1.7,2.3,2.9,3c1.2,0.7,2.5,1,3.8,1
		c1.4,0,2.7-0.3,3.8-1c1.2-0.7,2.2-1.6,2.9-2.9c0.7-1.3,1.1-2.8,1.1-4.5S531.1,240.9,530.4,239.6z"/>
	<path class="st1" d="M561.6,232.4c1.6,0.8,2.9,2,3.8,3.6c0.9,1.6,1.4,3.6,1.4,5.8v14.8h-5.3v-14c0-2.2-0.6-4-1.7-5.2
		c-1.2-1.2-2.7-1.8-4.7-1.8s-3.6,0.6-4.8,1.8s-1.8,2.9-1.8,5.2v14h-5.3v-25.1h5.3v2.9c0.9-1,2-1.8,3.4-2.4c1.4-0.6,2.8-0.9,4.3-0.9
		C558.1,231.2,560,231.6,561.6,232.4z"/>
	<path class="st1" d="M572.6,237.3c1.1-2,2.6-3.5,4.5-4.5c1.9-1.1,4.1-1.6,6.6-1.6c3.1,0,5.7,0.7,7.8,2.2c2,1.4,3.4,3.5,4.2,6.2
		h-5.8c-0.5-1.2-1.2-2.2-2.3-2.9c-1-0.7-2.3-1-3.9-1c-2.2,0-3.9,0.8-5.2,2.3c-1.3,1.5-1.9,3.6-1.9,6.3s0.6,4.8,1.9,6.3
		c1.3,1.5,3,2.3,5.2,2.3c3.1,0,5.1-1.3,6.1-4h5.8c-0.8,2.5-2.2,4.6-4.2,6.1c-2.1,1.5-4.6,2.3-7.7,2.3c-2.5,0-4.7-0.5-6.6-1.6
		c-1.9-1.1-3.4-2.6-4.5-4.6s-1.6-4.2-1.6-6.8S571.6,239.3,572.6,237.3z"/>
	<path class="st1" d="M623.8,246.1H604c0.2,2,0.9,3.6,2.3,4.8c1.4,1.2,3.1,1.8,5.1,1.8c2.9,0,4.9-1.2,6.1-3.5h5.8
		c-0.8,2.3-2.2,4.2-4.2,5.7c-2,1.5-4.6,2.2-7.6,2.2c-2.5,0-4.7-0.5-6.6-1.6c-2-1.1-3.5-2.6-4.6-4.6c-1.1-2-1.7-4.2-1.7-6.8
		s0.5-4.9,1.6-6.8s2.6-3.5,4.5-4.5c2-1.1,4.2-1.6,6.7-1.6c2.4,0,4.6,0.5,6.5,1.5c1.9,1,3.4,2.5,4.5,4.3c1.1,1.9,1.6,4,1.6,6.4
		C623.9,244.5,623.9,245.3,623.8,246.1z M618.4,241.9c0-1.9-0.7-3.4-2.1-4.6c-1.4-1.2-3.1-1.7-5.1-1.7c-1.8,0-3.4,0.6-4.7,1.7
		c-1.3,1.1-2.1,2.7-2.3,4.6H618.4z"/>
	<path class="st1" d="M641.2,237.4c1.1-1.9,2.5-3.5,4.4-4.5c1.9-1.1,3.9-1.6,6.2-1.6c1.7,0,3.4,0.4,5,1.1c1.6,0.7,2.9,1.7,3.9,2.8
		V223h5.4v33.7h-5.4v-3.8c-0.9,1.2-2.1,2.2-3.6,3s-3.3,1.2-5.3,1.2c-2.3,0-4.3-0.6-6.2-1.7s-3.3-2.7-4.4-4.6c-1.1-2-1.6-4.2-1.6-6.8
		C639.6,241.5,640.1,239.3,641.2,237.4z M659.7,239.6c-0.7-1.3-1.7-2.2-2.9-2.9s-2.5-1-3.8-1c-1.4,0-2.7,0.3-3.8,1
		c-1.2,0.7-2.2,1.6-2.9,2.9c-0.7,1.3-1.1,2.8-1.1,4.5s0.4,3.2,1.1,4.6s1.7,2.3,2.9,3c1.2,0.7,2.5,1,3.8,1c1.4,0,2.7-0.3,3.8-1
		c1.2-0.7,2.2-1.6,2.9-2.9c0.7-1.3,1.1-2.8,1.1-4.5S660.4,240.9,659.7,239.6z"/>
	<path class="st1" d="M696,246.1h-19.7c0.2,2,0.9,3.6,2.3,4.8c1.4,1.2,3.1,1.8,5.1,1.8c2.9,0,4.9-1.2,6.1-3.5h5.8
		c-0.8,2.3-2.2,4.2-4.2,5.7c-2,1.5-4.6,2.2-7.6,2.2c-2.5,0-4.7-0.5-6.6-1.6c-2-1.1-3.5-2.6-4.6-4.6c-1.1-2-1.7-4.2-1.7-6.8
		s0.5-4.9,1.6-6.8s2.6-3.5,4.5-4.5c2-1.1,4.2-1.6,6.7-1.6c2.4,0,4.6,0.5,6.5,1.5c1.9,1,3.4,2.5,4.5,4.3c1.1,1.9,1.6,4,1.6,6.4
		C696.2,244.5,696.2,245.3,696,246.1z M690.7,241.9c0-1.9-0.7-3.4-2.1-4.6c-1.4-1.2-3.1-1.7-5.1-1.7c-1.8,0-3.4,0.6-4.7,1.7
		c-1.3,1.1-2.1,2.7-2.3,4.6H690.7z"/>
	<path class="st1" d="M719.9,235.8v13.9c0,0.9,0.2,1.6,0.7,2c0.5,0.4,1.2,0.6,2.3,0.6h3.3v4.3H722c-2.4,0-4.3-0.5-5.5-1.6
		s-1.9-2.9-1.9-5.3v-13.9h-3v-4.2h3v-6.2h5.4v6.2h6.3v4.2H719.9z"/>
	<path class="st1" d="M753.5,231.6v25.1h-5.3v-3c-0.8,1-1.9,1.8-3.3,2.4s-2.8,0.9-4.3,0.9c-2,0-3.9-0.4-5.5-1.2
		c-1.6-0.8-2.9-2-3.8-3.6c-0.9-1.6-1.4-3.6-1.4-5.8v-14.8h5.3v14c0,2.2,0.6,4,1.7,5.2c1.2,1.2,2.7,1.8,4.7,1.8c2,0,3.6-0.6,4.8-1.8
		s1.8-2.9,1.8-5.2v-14H753.5z"/>
	<path class="st1" d="M809.4,232.4c1.6,0.8,2.9,2,3.8,3.6c0.9,1.6,1.4,3.6,1.4,5.8v14.8h-5.3v-14c0-2.2-0.6-4-1.7-5.2
		c-1.2-1.2-2.7-1.8-4.7-1.8c-2,0-3.6,0.6-4.8,1.8s-1.8,2.9-1.8,5.2v14H791v-14c0-2.2-0.6-4-1.7-5.2c-1.2-1.2-2.7-1.8-4.7-1.8
		s-3.6,0.6-4.8,1.8s-1.8,2.9-1.8,5.2v14h-5.3v-25.1h5.3v2.9c0.9-1,2-1.8,3.3-2.4c1.3-0.6,2.8-0.9,4.3-0.9c2.1,0,3.9,0.4,5.5,1.3
		c1.6,0.9,2.9,2.1,3.8,3.7c0.8-1.5,2-2.7,3.7-3.6s3.4-1.3,5.3-1.3C806,231.2,807.8,231.6,809.4,232.4z"/>
	<path class="st1" d="M820.6,237.4c1.1-1.9,2.5-3.5,4.4-4.5c1.9-1.1,3.9-1.6,6.2-1.6c2,0,3.8,0.4,5.3,1.2c1.5,0.8,2.7,1.7,3.6,2.9
		v-3.6h5.4v25.1h-5.4V253c-0.9,1.2-2.1,2.2-3.7,3c-1.6,0.8-3.3,1.2-5.3,1.2c-2.2,0-4.3-0.6-6.1-1.7c-1.8-1.1-3.3-2.7-4.4-4.6
		c-1.1-2-1.6-4.2-1.6-6.8C818.9,241.5,819.5,239.3,820.6,237.4z M839,239.6c-0.7-1.3-1.7-2.2-2.9-2.9s-2.5-1-3.8-1
		c-1.4,0-2.7,0.3-3.8,1c-1.2,0.7-2.2,1.6-2.9,2.9c-0.7,1.3-1.1,2.8-1.1,4.5s0.4,3.2,1.1,4.6s1.7,2.3,2.9,3c1.2,0.7,2.5,1,3.8,1
		c1.4,0,2.7-0.3,3.8-1c1.2-0.7,2.2-1.6,2.9-2.9c0.7-1.3,1.1-2.8,1.1-4.5S839.7,240.9,839,239.6z"/>
	<path class="st1" d="M870.2,232.4c1.6,0.8,2.9,2,3.8,3.6c0.9,1.6,1.4,3.6,1.4,5.8v14.8H870v-14c0-2.2-0.6-4-1.7-5.2
		c-1.2-1.2-2.7-1.8-4.7-1.8s-3.6,0.6-4.8,1.8s-1.8,2.9-1.8,5.2v14h-5.3v-25.1h5.3v2.9c0.9-1,2-1.8,3.4-2.4c1.4-0.6,2.8-0.9,4.3-0.9
		C866.7,231.2,868.5,231.6,870.2,232.4z"/>
	<path class="st1" d="M886,255.5c-2-1.1-3.5-2.6-4.6-4.6c-1.1-2-1.7-4.2-1.7-6.8c0-2.6,0.6-4.8,1.7-6.8s2.7-3.5,4.7-4.6
		c2-1.1,4.2-1.6,6.7-1.6c2.5,0,4.7,0.5,6.7,1.6c2,1.1,3.6,2.6,4.7,4.6s1.7,4.2,1.7,6.8c0,2.5-0.6,4.8-1.8,6.8s-2.8,3.5-4.9,4.6
		c-2,1.1-4.3,1.6-6.8,1.6C890.1,257.1,887.9,256.6,886,255.5z M896.4,251.7c1.2-0.6,2.2-1.6,2.9-2.9c0.8-1.3,1.1-2.8,1.1-4.6
		c0-1.8-0.4-3.4-1.1-4.6c-0.7-1.3-1.7-2.2-2.9-2.8s-2.5-1-3.8-1c-1.4,0-2.7,0.3-3.8,1s-2.1,1.6-2.8,2.8s-1,2.8-1,4.6
		c0,2.7,0.7,4.8,2.1,6.3s3.2,2.2,5.4,2.2C894,252.6,895.2,252.3,896.4,251.7z"/>
</g>
</svg>
